<svg id="Layer_1" data-name="Layer 1" xmlns="http://www.w3.org/2000/svg" viewBox="0 0 24.0313 24.0313"><path d="M3.213,7.8706l-.002.0015L1.5683,6.9192V18.3346l9.8686,5.6967V12.6367l-5.8124-3.37Z" fill="#cc3f45"/><path d="M20.3784,6.5853l1.55-.8966L12.0778,0,2.2212,5.6921,4.83,7.2029l.1138.0633,1.662.9625L6.6045,8.23l5.4734,3.1686,5.1239-2.97Zm-8.301,2.8984L9.3618,7.9117,7.4362,6.7954,5.7479,5.8178l-.1007-.0559L5.53,5.6941l6.5477-3.7812,6.5415,3.7778L16.3706,6.9949Z" fill="#f5b33c"/><path d="M20.8637,7.8713,20.8614,7.87,18.45,9.2661l-.5057.2936-5.3066,3.0769v11.394l9.8692-5.6964V6.9193Z" fill="#9d2a2f"/></svg>